<mxfile host="app.diagrams.net" modified="2024-02-12T10:12:36.592Z" agent="Mozilla/5.0 (Windows NT 10.0; Win64; x64) AppleWebKit/537.36 (KHTML, like Gecko) Chrome/121.0.0.0 Safari/537.36" etag="y2kOWS-KwQ5Zq76JUl5q" version="23.1.2" type="github">
  <diagram id="C5RBs43oDa-KdzZeNtuy" name="Page-1">
    <mxGraphModel dx="1509" dy="813" grid="1" gridSize="10" guides="1" tooltips="1" connect="1" arrows="1" fold="1" page="1" pageScale="1" pageWidth="827" pageHeight="1169" math="0" shadow="0">
      <root>
        <mxCell id="WIyWlLk6GJQsqaUBKTNV-0" />
        <mxCell id="WIyWlLk6GJQsqaUBKTNV-1" parent="WIyWlLk6GJQsqaUBKTNV-0" />
        <mxCell id="ekR93jH82zppxNUU2n5n-0" value="" style="edgeStyle=orthogonalEdgeStyle;rounded=0;orthogonalLoop=1;jettySize=auto;html=1;" edge="1" parent="WIyWlLk6GJQsqaUBKTNV-1" source="ekR93jH82zppxNUU2n5n-1">
          <mxGeometry relative="1" as="geometry">
            <mxPoint x="220" y="240" as="targetPoint" />
          </mxGeometry>
        </mxCell>
        <mxCell id="ekR93jH82zppxNUU2n5n-1" value="Start" style="ellipse;whiteSpace=wrap;html=1;" vertex="1" parent="WIyWlLk6GJQsqaUBKTNV-1">
          <mxGeometry x="145" y="120" width="150" height="80" as="geometry" />
        </mxCell>
        <mxCell id="ekR93jH82zppxNUU2n5n-2" value="" style="edgeStyle=orthogonalEdgeStyle;rounded=0;orthogonalLoop=1;jettySize=auto;html=1;" edge="1" parent="WIyWlLk6GJQsqaUBKTNV-1" source="ekR93jH82zppxNUU2n5n-4" target="ekR93jH82zppxNUU2n5n-12">
          <mxGeometry relative="1" as="geometry" />
        </mxCell>
        <mxCell id="ekR93jH82zppxNUU2n5n-3" value="" style="edgeStyle=orthogonalEdgeStyle;rounded=0;orthogonalLoop=1;jettySize=auto;html=1;" edge="1" parent="WIyWlLk6GJQsqaUBKTNV-1" source="ekR93jH82zppxNUU2n5n-4" target="ekR93jH82zppxNUU2n5n-12">
          <mxGeometry relative="1" as="geometry" />
        </mxCell>
        <mxCell id="ekR93jH82zppxNUU2n5n-4" value="Get the user input from the search bar on every keydown" style="rounded=0;whiteSpace=wrap;html=1;align=center;fillColor=#f8cecc;strokeColor=#b85450;" vertex="1" parent="WIyWlLk6GJQsqaUBKTNV-1">
          <mxGeometry x="298" y="590" width="130" height="60" as="geometry" />
        </mxCell>
        <mxCell id="ekR93jH82zppxNUU2n5n-5" value="" style="edgeStyle=orthogonalEdgeStyle;rounded=0;orthogonalLoop=1;jettySize=auto;html=1;" edge="1" parent="WIyWlLk6GJQsqaUBKTNV-1" target="ekR93jH82zppxNUU2n5n-9">
          <mxGeometry relative="1" as="geometry">
            <mxPoint x="220" y="280" as="sourcePoint" />
          </mxGeometry>
        </mxCell>
        <mxCell id="ekR93jH82zppxNUU2n5n-6" value="" style="edgeStyle=orthogonalEdgeStyle;rounded=0;orthogonalLoop=1;jettySize=auto;html=1;" edge="1" parent="WIyWlLk6GJQsqaUBKTNV-1" target="ekR93jH82zppxNUU2n5n-9">
          <mxGeometry relative="1" as="geometry">
            <mxPoint x="220" y="300" as="sourcePoint" />
          </mxGeometry>
        </mxCell>
        <mxCell id="ekR93jH82zppxNUU2n5n-8" value="" style="edgeStyle=orthogonalEdgeStyle;rounded=0;orthogonalLoop=1;jettySize=auto;html=1;" edge="1" parent="WIyWlLk6GJQsqaUBKTNV-1" source="ekR93jH82zppxNUU2n5n-9" target="ekR93jH82zppxNUU2n5n-17">
          <mxGeometry relative="1" as="geometry" />
        </mxCell>
        <mxCell id="ekR93jH82zppxNUU2n5n-27" style="edgeStyle=orthogonalEdgeStyle;rounded=0;orthogonalLoop=1;jettySize=auto;html=1;" edge="1" parent="WIyWlLk6GJQsqaUBKTNV-1" source="ekR93jH82zppxNUU2n5n-9">
          <mxGeometry relative="1" as="geometry">
            <mxPoint x="130" y="390" as="targetPoint" />
          </mxGeometry>
        </mxCell>
        <mxCell id="ekR93jH82zppxNUU2n5n-9" value="Check if the string &lt;br&gt;characters are at least 3 ?&amp;nbsp;" style="rhombus;whiteSpace=wrap;html=1;fillColor=#dae8fc;strokeColor=#6c8ebf;" vertex="1" parent="WIyWlLk6GJQsqaUBKTNV-1">
          <mxGeometry x="172.5" y="350" width="95" height="80" as="geometry" />
        </mxCell>
        <mxCell id="ekR93jH82zppxNUU2n5n-10" value="TRUE" style="text;html=1;align=center;verticalAlign=middle;resizable=0;points=[];autosize=1;strokeColor=none;fillColor=none;" vertex="1" parent="WIyWlLk6GJQsqaUBKTNV-1">
          <mxGeometry x="350" y="420" width="60" height="30" as="geometry" />
        </mxCell>
        <mxCell id="ekR93jH82zppxNUU2n5n-11" value="" style="edgeStyle=orthogonalEdgeStyle;rounded=0;orthogonalLoop=1;jettySize=auto;html=1;exitX=0;exitY=1;exitDx=0;exitDy=0;" edge="1" parent="WIyWlLk6GJQsqaUBKTNV-1" source="ekR93jH82zppxNUU2n5n-12">
          <mxGeometry relative="1" as="geometry">
            <mxPoint x="248" y="900" as="targetPoint" />
            <Array as="points">
              <mxPoint x="288" y="850" />
              <mxPoint x="248" y="850" />
            </Array>
          </mxGeometry>
        </mxCell>
        <mxCell id="ekR93jH82zppxNUU2n5n-12" value="&lt;div&gt;&lt;span style=&quot;background-color: initial;&quot;&gt;The user input corresponds to&lt;/span&gt;&lt;/div&gt;&lt;div&gt;&lt;span style=&quot;background-color: initial;&quot;&gt;&amp;nbsp;a keyword or ingredient or multiple recipes (title, ingredients, description)?&lt;/span&gt;&lt;br&gt;&lt;/div&gt;" style="rhombus;whiteSpace=wrap;html=1;fillColor=#dae8fc;strokeColor=#6c8ebf;" vertex="1" parent="WIyWlLk6GJQsqaUBKTNV-1">
          <mxGeometry x="210" y="680" width="310" height="120" as="geometry" />
        </mxCell>
        <mxCell id="ekR93jH82zppxNUU2n5n-13" value="" style="edgeStyle=orthogonalEdgeStyle;rounded=0;orthogonalLoop=1;jettySize=auto;html=1;" edge="1" parent="WIyWlLk6GJQsqaUBKTNV-1">
          <mxGeometry relative="1" as="geometry">
            <mxPoint x="250" y="965" as="sourcePoint" />
            <mxPoint x="250" y="995" as="targetPoint" />
          </mxGeometry>
        </mxCell>
        <mxCell id="ekR93jH82zppxNUU2n5n-14" value="Add the recipe/s in the filtered recipes array" style="rounded=0;whiteSpace=wrap;html=1;align=center;fillColor=#f8cecc;strokeColor=#b85450;" vertex="1" parent="WIyWlLk6GJQsqaUBKTNV-1">
          <mxGeometry x="190" y="905" width="130" height="60" as="geometry" />
        </mxCell>
        <mxCell id="ekR93jH82zppxNUU2n5n-15" value="TRUE" style="text;html=1;align=center;verticalAlign=middle;resizable=0;points=[];autosize=1;strokeColor=none;fillColor=none;" vertex="1" parent="WIyWlLk6GJQsqaUBKTNV-1">
          <mxGeometry x="220" y="800" width="60" height="30" as="geometry" />
        </mxCell>
        <mxCell id="ekR93jH82zppxNUU2n5n-16" value="" style="edgeStyle=orthogonalEdgeStyle;rounded=0;orthogonalLoop=1;jettySize=auto;html=1;entryX=0.5;entryY=0;entryDx=0;entryDy=0;" edge="1" parent="WIyWlLk6GJQsqaUBKTNV-1" source="ekR93jH82zppxNUU2n5n-17" target="ekR93jH82zppxNUU2n5n-4">
          <mxGeometry relative="1" as="geometry">
            <Array as="points">
              <mxPoint x="363" y="560" />
              <mxPoint x="363" y="560" />
            </Array>
          </mxGeometry>
        </mxCell>
        <mxCell id="ekR93jH82zppxNUU2n5n-17" value="Initialize an empty array for the filtered recipes" style="rounded=0;whiteSpace=wrap;html=1;align=center;fillColor=#f8cecc;strokeColor=#b85450;" vertex="1" parent="WIyWlLk6GJQsqaUBKTNV-1">
          <mxGeometry x="293" y="480" width="140" height="60" as="geometry" />
        </mxCell>
        <mxCell id="ekR93jH82zppxNUU2n5n-35" style="edgeStyle=orthogonalEdgeStyle;rounded=0;orthogonalLoop=1;jettySize=auto;html=1;" edge="1" parent="WIyWlLk6GJQsqaUBKTNV-1" source="ekR93jH82zppxNUU2n5n-18" target="ekR93jH82zppxNUU2n5n-20">
          <mxGeometry relative="1" as="geometry" />
        </mxCell>
        <mxCell id="ekR93jH82zppxNUU2n5n-18" value="Update the user interface with the recipes from the filtered&lt;br&gt;recipes array" style="rounded=0;whiteSpace=wrap;html=1;align=center;fillColor=#f8cecc;strokeColor=#b85450;" vertex="1" parent="WIyWlLk6GJQsqaUBKTNV-1">
          <mxGeometry x="190" y="1001" width="130" height="60" as="geometry" />
        </mxCell>
        <mxCell id="ekR93jH82zppxNUU2n5n-20" value="END" style="ellipse;whiteSpace=wrap;html=1;rounded=0;fillColor=#f5f5f5;fontColor=#333333;strokeColor=#666666;" vertex="1" parent="WIyWlLk6GJQsqaUBKTNV-1">
          <mxGeometry x="340.005" y="1240" width="80" height="80" as="geometry" />
        </mxCell>
        <mxCell id="ekR93jH82zppxNUU2n5n-21" value="" style="edgeStyle=orthogonalEdgeStyle;rounded=0;orthogonalLoop=1;jettySize=auto;html=1;exitX=1;exitY=1;exitDx=0;exitDy=0;" edge="1" parent="WIyWlLk6GJQsqaUBKTNV-1" source="ekR93jH82zppxNUU2n5n-12">
          <mxGeometry relative="1" as="geometry">
            <mxPoint x="371" y="880" as="sourcePoint" />
            <mxPoint x="501" y="909" as="targetPoint" />
            <Array as="points">
              <mxPoint x="443" y="855" />
              <mxPoint x="501" y="855" />
            </Array>
          </mxGeometry>
        </mxCell>
        <mxCell id="ekR93jH82zppxNUU2n5n-22" value="" style="edgeStyle=orthogonalEdgeStyle;rounded=0;orthogonalLoop=1;jettySize=auto;html=1;" edge="1" parent="WIyWlLk6GJQsqaUBKTNV-1" source="ekR93jH82zppxNUU2n5n-23" target="ekR93jH82zppxNUU2n5n-25">
          <mxGeometry relative="1" as="geometry" />
        </mxCell>
        <mxCell id="ekR93jH82zppxNUU2n5n-23" value="Don&#39;t add a recipe to the array" style="rounded=0;whiteSpace=wrap;html=1;align=center;fillColor=#f8cecc;strokeColor=#b85450;" vertex="1" parent="WIyWlLk6GJQsqaUBKTNV-1">
          <mxGeometry x="441" y="909" width="130" height="60" as="geometry" />
        </mxCell>
        <mxCell id="ekR93jH82zppxNUU2n5n-34" style="edgeStyle=orthogonalEdgeStyle;rounded=0;orthogonalLoop=1;jettySize=auto;html=1;exitX=0.5;exitY=1;exitDx=0;exitDy=0;entryX=1;entryY=0.5;entryDx=0;entryDy=0;" edge="1" parent="WIyWlLk6GJQsqaUBKTNV-1" source="ekR93jH82zppxNUU2n5n-25" target="ekR93jH82zppxNUU2n5n-20">
          <mxGeometry relative="1" as="geometry" />
        </mxCell>
        <mxCell id="ekR93jH82zppxNUU2n5n-25" value="Update user interface with a specific message and giving him example searches..." style="rounded=0;whiteSpace=wrap;html=1;align=center;fillColor=#f8cecc;strokeColor=#b85450;" vertex="1" parent="WIyWlLk6GJQsqaUBKTNV-1">
          <mxGeometry x="441" y="989" width="130" height="160" as="geometry" />
        </mxCell>
        <mxCell id="ekR93jH82zppxNUU2n5n-26" value="&lt;div&gt;FALSE&lt;/div&gt;" style="text;html=1;align=center;verticalAlign=middle;resizable=0;points=[];autosize=1;strokeColor=none;fillColor=none;" vertex="1" parent="WIyWlLk6GJQsqaUBKTNV-1">
          <mxGeometry x="450" y="800" width="60" height="30" as="geometry" />
        </mxCell>
        <mxCell id="ekR93jH82zppxNUU2n5n-28" value="Nothing happens" style="rounded=0;whiteSpace=wrap;html=1;fillColor=#f8cecc;strokeColor=#b85450;" vertex="1" parent="WIyWlLk6GJQsqaUBKTNV-1">
          <mxGeometry x="10" y="360" width="120" height="60" as="geometry" />
        </mxCell>
        <mxCell id="ekR93jH82zppxNUU2n5n-29" value="Typing a string into the search bar" style="rounded=0;whiteSpace=wrap;html=1;fillColor=#f8cecc;strokeColor=#b85450;" vertex="1" parent="WIyWlLk6GJQsqaUBKTNV-1">
          <mxGeometry x="160" y="240" width="120" height="50" as="geometry" />
        </mxCell>
        <mxCell id="ekR93jH82zppxNUU2n5n-36" value="FALSE" style="text;html=1;align=center;verticalAlign=middle;resizable=0;points=[];autosize=1;strokeColor=none;fillColor=none;" vertex="1" parent="WIyWlLk6GJQsqaUBKTNV-1">
          <mxGeometry x="125" y="350" width="60" height="30" as="geometry" />
        </mxCell>
        <mxCell id="ekR93jH82zppxNUU2n5n-39" value="&lt;h1&gt;For/while loops...&lt;/h1&gt;" style="text;html=1;strokeColor=none;fillColor=none;spacing=5;spacingTop=-20;whiteSpace=wrap;overflow=hidden;rounded=0;align=center;" vertex="1" parent="WIyWlLk6GJQsqaUBKTNV-1">
          <mxGeometry x="125" y="50" width="190" height="120" as="geometry" />
        </mxCell>
        <mxCell id="ekR93jH82zppxNUU2n5n-42" value="" style="edgeStyle=orthogonalEdgeStyle;rounded=0;orthogonalLoop=1;jettySize=auto;html=1;" edge="1" parent="WIyWlLk6GJQsqaUBKTNV-1" source="ekR93jH82zppxNUU2n5n-43">
          <mxGeometry relative="1" as="geometry">
            <mxPoint x="894.4615384615381" y="250" as="targetPoint" />
          </mxGeometry>
        </mxCell>
        <mxCell id="ekR93jH82zppxNUU2n5n-43" value="Strat" style="ellipse;whiteSpace=wrap;html=1;" vertex="1" parent="WIyWlLk6GJQsqaUBKTNV-1">
          <mxGeometry x="820" y="130" width="150" height="80" as="geometry" />
        </mxCell>
        <mxCell id="ekR93jH82zppxNUU2n5n-44" value="" style="edgeStyle=orthogonalEdgeStyle;rounded=0;orthogonalLoop=1;jettySize=auto;html=1;" edge="1" parent="WIyWlLk6GJQsqaUBKTNV-1" target="ekR93jH82zppxNUU2n5n-54">
          <mxGeometry relative="1" as="geometry">
            <mxPoint x="895" y="650" as="sourcePoint" />
          </mxGeometry>
        </mxCell>
        <mxCell id="ekR93jH82zppxNUU2n5n-45" value="" style="edgeStyle=orthogonalEdgeStyle;rounded=0;orthogonalLoop=1;jettySize=auto;html=1;" edge="1" parent="WIyWlLk6GJQsqaUBKTNV-1" target="ekR93jH82zppxNUU2n5n-54">
          <mxGeometry relative="1" as="geometry">
            <mxPoint x="895" y="650" as="sourcePoint" />
          </mxGeometry>
        </mxCell>
        <mxCell id="ekR93jH82zppxNUU2n5n-46" value="Use an external function in order to verify if the user input corresponds to a keyword or a recipe/recipe detail" style="rounded=0;whiteSpace=wrap;html=1;align=center;fillColor=#f8cecc;strokeColor=#b85450;" vertex="1" parent="WIyWlLk6GJQsqaUBKTNV-1">
          <mxGeometry x="735" y="585" width="320" height="60" as="geometry" />
        </mxCell>
        <mxCell id="ekR93jH82zppxNUU2n5n-47" value="" style="edgeStyle=orthogonalEdgeStyle;rounded=0;orthogonalLoop=1;jettySize=auto;html=1;" edge="1" parent="WIyWlLk6GJQsqaUBKTNV-1" target="ekR93jH82zppxNUU2n5n-51">
          <mxGeometry relative="1" as="geometry">
            <mxPoint x="895" y="290" as="sourcePoint" />
          </mxGeometry>
        </mxCell>
        <mxCell id="ekR93jH82zppxNUU2n5n-48" value="" style="edgeStyle=orthogonalEdgeStyle;rounded=0;orthogonalLoop=1;jettySize=auto;html=1;" edge="1" parent="WIyWlLk6GJQsqaUBKTNV-1" target="ekR93jH82zppxNUU2n5n-51">
          <mxGeometry relative="1" as="geometry">
            <mxPoint x="894.4615384615381" y="310" as="sourcePoint" />
          </mxGeometry>
        </mxCell>
        <mxCell id="ekR93jH82zppxNUU2n5n-50" value="" style="edgeStyle=orthogonalEdgeStyle;rounded=0;orthogonalLoop=1;jettySize=auto;html=1;" edge="1" parent="WIyWlLk6GJQsqaUBKTNV-1" source="ekR93jH82zppxNUU2n5n-51" target="ekR93jH82zppxNUU2n5n-59">
          <mxGeometry relative="1" as="geometry" />
        </mxCell>
        <mxCell id="ekR93jH82zppxNUU2n5n-72" value="" style="edgeStyle=orthogonalEdgeStyle;rounded=0;orthogonalLoop=1;jettySize=auto;html=1;" edge="1" parent="WIyWlLk6GJQsqaUBKTNV-1" source="ekR93jH82zppxNUU2n5n-51" target="ekR93jH82zppxNUU2n5n-71">
          <mxGeometry relative="1" as="geometry" />
        </mxCell>
        <mxCell id="ekR93jH82zppxNUU2n5n-51" value="Check if the string&lt;br style=&quot;border-color: var(--border-color);&quot;&gt;characters are at least 3 ?&amp;nbsp;" style="rhombus;whiteSpace=wrap;html=1;fillColor=#dae8fc;strokeColor=#6c8ebf;" vertex="1" parent="WIyWlLk6GJQsqaUBKTNV-1">
          <mxGeometry x="847.5" y="360" width="95" height="80" as="geometry" />
        </mxCell>
        <mxCell id="ekR93jH82zppxNUU2n5n-52" value="TRUE" style="text;html=1;align=center;verticalAlign=middle;resizable=0;points=[];autosize=1;strokeColor=none;fillColor=none;" vertex="1" parent="WIyWlLk6GJQsqaUBKTNV-1">
          <mxGeometry x="900" y="450" width="60" height="30" as="geometry" />
        </mxCell>
        <mxCell id="ekR93jH82zppxNUU2n5n-75" style="edgeStyle=orthogonalEdgeStyle;rounded=0;orthogonalLoop=1;jettySize=auto;html=1;exitX=1;exitY=0.5;exitDx=0;exitDy=0;" edge="1" parent="WIyWlLk6GJQsqaUBKTNV-1" source="ekR93jH82zppxNUU2n5n-54" target="ekR93jH82zppxNUU2n5n-64">
          <mxGeometry relative="1" as="geometry" />
        </mxCell>
        <mxCell id="ekR93jH82zppxNUU2n5n-76" style="edgeStyle=orthogonalEdgeStyle;rounded=0;orthogonalLoop=1;jettySize=auto;html=1;exitX=0;exitY=0.5;exitDx=0;exitDy=0;entryX=0.5;entryY=0;entryDx=0;entryDy=0;" edge="1" parent="WIyWlLk6GJQsqaUBKTNV-1" source="ekR93jH82zppxNUU2n5n-54" target="ekR93jH82zppxNUU2n5n-56">
          <mxGeometry relative="1" as="geometry" />
        </mxCell>
        <mxCell id="ekR93jH82zppxNUU2n5n-54" value="&lt;div&gt;External function returns a boolean true/false&lt;/div&gt;" style="rhombus;whiteSpace=wrap;html=1;fillColor=#dae8fc;strokeColor=#6c8ebf;" vertex="1" parent="WIyWlLk6GJQsqaUBKTNV-1">
          <mxGeometry x="810" y="690" width="170" height="170" as="geometry" />
        </mxCell>
        <mxCell id="ekR93jH82zppxNUU2n5n-74" style="edgeStyle=orthogonalEdgeStyle;rounded=0;orthogonalLoop=1;jettySize=auto;html=1;exitX=0.5;exitY=1;exitDx=0;exitDy=0;entryX=0.5;entryY=0;entryDx=0;entryDy=0;" edge="1" parent="WIyWlLk6GJQsqaUBKTNV-1" source="ekR93jH82zppxNUU2n5n-56" target="ekR93jH82zppxNUU2n5n-61">
          <mxGeometry relative="1" as="geometry" />
        </mxCell>
        <mxCell id="ekR93jH82zppxNUU2n5n-56" value="Add the recipe/s in the filtered recipes array" style="rounded=0;whiteSpace=wrap;html=1;align=center;fillColor=#f8cecc;strokeColor=#b85450;" vertex="1" parent="WIyWlLk6GJQsqaUBKTNV-1">
          <mxGeometry x="717.5" y="909" width="130" height="60" as="geometry" />
        </mxCell>
        <mxCell id="ekR93jH82zppxNUU2n5n-57" value="TRUE" style="text;html=1;align=center;verticalAlign=middle;resizable=0;points=[];autosize=1;strokeColor=none;fillColor=none;" vertex="1" parent="WIyWlLk6GJQsqaUBKTNV-1">
          <mxGeometry x="717.5" y="830" width="60" height="30" as="geometry" />
        </mxCell>
        <mxCell id="ekR93jH82zppxNUU2n5n-58" value="" style="edgeStyle=orthogonalEdgeStyle;rounded=0;orthogonalLoop=1;jettySize=auto;html=1;entryX=0.5;entryY=0;entryDx=0;entryDy=0;" edge="1" parent="WIyWlLk6GJQsqaUBKTNV-1" source="ekR93jH82zppxNUU2n5n-59">
          <mxGeometry relative="1" as="geometry">
            <Array as="points">
              <mxPoint x="895" y="530" />
            </Array>
            <mxPoint x="895" y="590" as="targetPoint" />
          </mxGeometry>
        </mxCell>
        <mxCell id="ekR93jH82zppxNUU2n5n-59" value="Use filter method in order to filter out the recipes based on the user input" style="rounded=0;whiteSpace=wrap;html=1;align=center;fillColor=#f8cecc;strokeColor=#b85450;" vertex="1" parent="WIyWlLk6GJQsqaUBKTNV-1">
          <mxGeometry x="825" y="490" width="140" height="60" as="geometry" />
        </mxCell>
        <mxCell id="ekR93jH82zppxNUU2n5n-77" style="edgeStyle=orthogonalEdgeStyle;rounded=0;orthogonalLoop=1;jettySize=auto;html=1;exitX=0.5;exitY=1;exitDx=0;exitDy=0;" edge="1" parent="WIyWlLk6GJQsqaUBKTNV-1" source="ekR93jH82zppxNUU2n5n-61" target="ekR93jH82zppxNUU2n5n-62">
          <mxGeometry relative="1" as="geometry" />
        </mxCell>
        <mxCell id="ekR93jH82zppxNUU2n5n-61" value="Update the user interface with the recipes from the filtered&lt;br style=&quot;border-color: var(--border-color);&quot;&gt;recipes array" style="rounded=0;whiteSpace=wrap;html=1;align=center;fillColor=#f8cecc;strokeColor=#b85450;" vertex="1" parent="WIyWlLk6GJQsqaUBKTNV-1">
          <mxGeometry x="717.5" y="1000" width="130" height="60" as="geometry" />
        </mxCell>
        <mxCell id="ekR93jH82zppxNUU2n5n-62" value="END" style="ellipse;whiteSpace=wrap;html=1;rounded=0;fillColor=#f5f5f5;fontColor=#333333;strokeColor=#666666;" vertex="1" parent="WIyWlLk6GJQsqaUBKTNV-1">
          <mxGeometry x="860.495" y="1237" width="80" height="80" as="geometry" />
        </mxCell>
        <mxCell id="ekR93jH82zppxNUU2n5n-64" value="Don&#39;t add a recipe to the array" style="rounded=0;whiteSpace=wrap;html=1;align=center;fillColor=#f8cecc;strokeColor=#b85450;" vertex="1" parent="WIyWlLk6GJQsqaUBKTNV-1">
          <mxGeometry x="966" y="920" width="130" height="60" as="geometry" />
        </mxCell>
        <mxCell id="ekR93jH82zppxNUU2n5n-65" value="" style="edgeStyle=orthogonalEdgeStyle;rounded=0;orthogonalLoop=1;jettySize=auto;html=1;" edge="1" parent="WIyWlLk6GJQsqaUBKTNV-1" target="ekR93jH82zppxNUU2n5n-67">
          <mxGeometry relative="1" as="geometry">
            <mxPoint x="1030.01" y="980" as="sourcePoint" />
          </mxGeometry>
        </mxCell>
        <mxCell id="ekR93jH82zppxNUU2n5n-78" style="edgeStyle=orthogonalEdgeStyle;rounded=0;orthogonalLoop=1;jettySize=auto;html=1;exitX=0.5;exitY=1;exitDx=0;exitDy=0;entryX=0.5;entryY=0;entryDx=0;entryDy=0;" edge="1" parent="WIyWlLk6GJQsqaUBKTNV-1" source="ekR93jH82zppxNUU2n5n-67" target="ekR93jH82zppxNUU2n5n-62">
          <mxGeometry relative="1" as="geometry" />
        </mxCell>
        <mxCell id="ekR93jH82zppxNUU2n5n-67" value="&lt;div&gt;Update user interface with a specific message and giving him example searches...&lt;/div&gt;" style="rounded=0;whiteSpace=wrap;html=1;align=center;fillColor=#f8cecc;strokeColor=#b85450;" vertex="1" parent="WIyWlLk6GJQsqaUBKTNV-1">
          <mxGeometry x="965" y="1000" width="130" height="160" as="geometry" />
        </mxCell>
        <mxCell id="ekR93jH82zppxNUU2n5n-68" value="FALSE" style="text;html=1;align=center;verticalAlign=middle;resizable=0;points=[];autosize=1;strokeColor=none;fillColor=none;" vertex="1" parent="WIyWlLk6GJQsqaUBKTNV-1">
          <mxGeometry x="1035" y="828" width="60" height="30" as="geometry" />
        </mxCell>
        <mxCell id="ekR93jH82zppxNUU2n5n-69" value="&lt;h1&gt;Native methods(filter, forEach, map, reduce, flatMap...)&lt;/h1&gt;" style="text;html=1;strokeColor=none;fillColor=none;spacing=5;spacingTop=-20;whiteSpace=wrap;overflow=hidden;rounded=0;align=center;" vertex="1" parent="WIyWlLk6GJQsqaUBKTNV-1">
          <mxGeometry x="699" y="55" width="420" height="76" as="geometry" />
        </mxCell>
        <mxCell id="ekR93jH82zppxNUU2n5n-70" value="Typing a string into the search bar" style="rounded=0;whiteSpace=wrap;html=1;fillColor=#f8cecc;strokeColor=#b85450;" vertex="1" parent="WIyWlLk6GJQsqaUBKTNV-1">
          <mxGeometry x="835" y="250" width="120" height="50" as="geometry" />
        </mxCell>
        <mxCell id="ekR93jH82zppxNUU2n5n-71" value="Nothing happens" style="whiteSpace=wrap;html=1;fillColor=#f8cecc;strokeColor=#b85450;" vertex="1" parent="WIyWlLk6GJQsqaUBKTNV-1">
          <mxGeometry x="660" y="370" width="120" height="60" as="geometry" />
        </mxCell>
        <mxCell id="ekR93jH82zppxNUU2n5n-73" value="FALSE" style="text;html=1;align=center;verticalAlign=middle;resizable=0;points=[];autosize=1;strokeColor=none;fillColor=none;" vertex="1" parent="WIyWlLk6GJQsqaUBKTNV-1">
          <mxGeometry x="800" y="360" width="60" height="30" as="geometry" />
        </mxCell>
      </root>
    </mxGraphModel>
  </diagram>
</mxfile>
